<?xml version="1.0" standalone="no"?>
<!DOCTYPE svg PUBLIC "-//W3C//DTD SVG 20010904//EN"
 "http://www.w3.org/TR/2001/REC-SVG-20010904/DTD/svg10.dtd">
<svg version="1.0" xmlns="http://www.w3.org/2000/svg"
 width="700.000000pt" height="700.000000pt" viewBox="0 0 700.000000 700.000000"
 preserveAspectRatio="xMidYMid meet">
<metadata>
Created by potrace 1.11, written by Peter Selinger 2001-2013
</metadata>
<g transform="translate(0.000000,700.000000) scale(0.100000,-0.100000)"
fill="#000000" stroke="none">
<path d="M3380 5930 l0 -700 155 0 155 0 0 700 0 700 -155 0 -155 0 0 -700z"/>
<path d="M2841 5950 c-691 -177 -1267 -588 -1669 -1189 -99 -149 -245 -440
-302 -604 -122 -351 -167 -641 -157 -1026 8 -315 44 -527 137 -811 141 -430
360 -782 694 -1115 439 -439 950 -697 1575 -796 165 -26 482 -36 659 -20 490
43 948 206 1347 479 151 103 238 175 389 322 476 464 765 1064 836 1735 25
239 8 598 -40 839 -208 1033 -980 1872 -1988 2160 -64 19 -132 37 -149 41
l-33 7 0 -162 c0 -120 3 -162 13 -164 578 -162 1054 -479 1390 -928 263 -352
414 -717 483 -1168 22 -142 25 -507 5 -650 -61 -443 -225 -850 -483 -1196
-381 -513 -961 -868 -1590 -973 -807 -136 -1622 123 -2198 699 -321 322 -558
740 -665 1174 -171 700 -35 1445 373 2031 98 141 162 217 301 355 325 324 711
542 1169 660 l42 11 0 159 c0 122 -3 160 -12 160 -7 -1 -64 -14 -127 -30z"/>
<path d="M1994 4327 c-3 -8 -4 -54 -2 -103 l3 -89 75 -6 c126 -10 197 -56 252
-162 12 -23 234 -577 493 -1232 l471 -1190 165 -3 166 -2 433 1052 c238 579
452 1094 475 1143 104 217 251 351 426 387 l59 12 0 103 0 103 -557 -2 -558
-3 0 -100 0 -100 83 -6 c185 -14 296 -130 278 -289 -5 -38 -91 -267 -282 -745
-152 -379 -279 -694 -284 -698 -4 -5 -17 15 -28 45 -11 29 -146 373 -300 764
-276 701 -312 797 -312 839 0 55 77 85 218 85 l92 0 0 105 0 105 -680 0 c-557
0 -682 -2 -686 -13z"/>
</g>
</svg>
