<?xml version="1.0" standalone="no"?>
<!DOCTYPE svg PUBLIC "-//W3C//DTD SVG 20010904//EN"
 "http://www.w3.org/TR/2001/REC-SVG-20010904/DTD/svg10.dtd">
<svg version="1.0" xmlns="http://www.w3.org/2000/svg"
 width="700.000000pt" height="700.000000pt" viewBox="0 0 700.000000 700.000000"
 preserveAspectRatio="xMidYMid meet">
<metadata>
Created by potrace 1.11, written by Peter Selinger 2001-2013
</metadata>
<g transform="translate(0.000000,700.000000) scale(0.100000,-0.100000)"
fill="#000000" stroke="none">
<path d="M3199 6989 c-10 -6 -15 -2106 -5 -2116 4 -5 509 -8 599 -4 16 1 17
58 17 1061 0 583 -3 1060 -7 1061 -34 4 -597 3 -604 -2z"/>
<path d="M2575 6285 c-109 -30 -309 -107 -454 -176 -825 -391 -1452 -1136
-1706 -2026 -14 -51 -28 -102 -30 -115 -6 -29 -11 -52 -23 -108 -6 -25 -14
-65 -17 -90 -4 -24 -8 -47 -10 -50 -1 -3 -6 -32 -10 -65 -4 -33 -8 -71 -10
-85 -23 -183 -23 -541 0 -710 2 -14 6 -50 10 -80 18 -148 80 -415 135 -580
185 -555 526 -1057 975 -1437 399 -337 898 -582 1404 -687 101 -21 137 -27
236 -41 11 -2 49 -6 85 -9 36 -4 77 -9 92 -12 39 -8 399 -7 478 0 178 17 283
31 382 52 37 7 81 16 97 19 64 11 313 87 424 129 557 212 1082 605 1417 1060
24 34 47 63 50 66 11 9 135 203 177 275 142 246 263 544 332 820 23 92 52 245
67 354 3 25 7 57 9 70 23 145 22 518 -1 706 -19 155 -40 271 -79 438 -22 92
-86 283 -140 417 -347 853 -1065 1530 -1939 1826 -71 24 -132 44 -137 44 -4 0
-8 -213 -8 -472 l0 -473 137 -68 c278 -137 532 -332 722 -557 30 -35 63 -73
73 -85 75 -82 294 -460 322 -555 4 -14 13 -38 20 -55 7 -16 17 -41 22 -55 30
-73 84 -293 108 -435 19 -114 25 -405 12 -545 -45 -457 -218 -881 -503 -1235
-107 -133 -208 -233 -393 -387 -49 -42 -250 -168 -341 -215 -234 -122 -511
-211 -745 -239 -27 -3 -61 -8 -75 -11 -46 -9 -394 -11 -470 -2 -137 15 -164
20 -280 45 -116 26 -281 76 -312 94 -10 5 -22 10 -27 10 -12 0 -145 60 -236
107 -187 96 -391 247 -551 407 -242 243 -390 467 -529 801 -58 138 -121 390
-140 560 -17 138 -22 379 -10 475 21 180 20 177 46 300 68 317 199 604 403
885 73 100 95 125 235 265 212 211 460 378 729 490 l52 22 0 469 c0 369 -3
469 -12 468 -7 0 -35 -6 -63 -14z"/>
<path d="M4340 5060 c-23 -74 -46 -151 -52 -170 -6 -19 -17 -53 -25 -75 -7
-22 -26 -83 -42 -135 -33 -109 -368 -1178 -441 -1410 -121 -383 -176 -558
-232 -740 -33 -107 -63 -198 -67 -202 -3 -4 -30 59 -58 140 -28 81 -91 257
-138 392 -48 135 -100 281 -116 325 -15 44 -53 152 -84 240 -31 88 -65 182
-74 210 l-18 50 -684 0 c-376 1 -689 -1 -695 -3 -7 -2 11 -24 39 -50 29 -26
88 -81 132 -123 44 -41 117 -110 161 -152 l81 -76 294 0 c162 0 315 0 341 -1
46 0 46 0 63 -47 19 -54 49 -137 93 -263 17 -47 44 -123 60 -170 17 -47 56
-157 87 -245 30 -88 69 -198 86 -245 76 -215 89 -252 127 -360 177 -504 323
-914 327 -918 1 -1 9 19 18 45 23 70 243 777 287 923 21 69 84 271 140 450 56
179 131 420 166 535 36 116 74 237 85 270 11 33 22 67 24 75 4 18 146 472 173
555 12 36 22 54 26 45 10 -26 67 -183 87 -240 11 -30 24 -64 29 -75 5 -11 34
-90 65 -175 32 -85 64 -172 72 -192 l15 -38 184 0 183 0 68 57 c37 32 70 60
73 63 3 3 34 30 70 60 36 30 70 60 76 65 6 6 35 30 65 55 29 25 67 57 84 72
l30 27 -274 0 c-151 1 -276 3 -278 5 -4 4 -123 318 -143 376 -4 14 -22 61 -38
105 -16 44 -69 186 -117 315 -47 129 -90 244 -95 255 -12 30 -61 159 -133 355
l-65 174 -42 -134z"/>
</g>
</svg>
