<?xml version="1.0" encoding="UTF-8" standalone="no"?>
<svg
   xmlns:dc="http://purl.org/dc/elements/1.1/"
   xmlns:cc="http://creativecommons.org/ns#"
   xmlns:rdf="http://www.w3.org/1999/02/22-rdf-syntax-ns#"
   xmlns:svg="http://www.w3.org/2000/svg"
   xmlns="http://www.w3.org/2000/svg"
   xmlns:sodipodi="http://sodipodi.sourceforge.net/DTD/sodipodi-0.dtd"
   xmlns:inkscape="http://www.inkscape.org/namespaces/inkscape"
   viewBox="0 0 72 72.000003"
   version="1.1"
   id="svg17"
   sodipodi:docname="Volatility_R1_Logo Symbol Black Red Square.svg"
   width="72"
   height="72"
   inkscape:version="0.92.4 5da689c313, 2019-01-14">
  <metadata
     id="metadata21">
    <rdf:RDF>
      <cc:Work
         rdf:about="">
        <dc:format>image/svg+xml</dc:format>
        <dc:type
           rdf:resource="http://purl.org/dc/dcmitype/StillImage" />
        <dc:title>Volatility_R1_Logo Symbol Black Red</dc:title>
      </cc:Work>
    </rdf:RDF>
  </metadata>
  <sodipodi:namedview
     pagecolor="#ffffff"
     bordercolor="#666666"
     borderopacity="1"
     objecttolerance="10"
     gridtolerance="10"
     guidetolerance="10"
     inkscape:pageopacity="0"
     inkscape:pageshadow="2"
     inkscape:window-width="1920"
     inkscape:window-height="1016"
     id="namedview19"
     showgrid="false"
     inkscape:zoom="3.28325"
     inkscape:cx="-3.7014393"
     inkscape:cy="34.417117"
     inkscape:window-x="0"
     inkscape:window-y="30"
     inkscape:window-maximized="1"
     inkscape:current-layer="svg17" />
  <defs
     id="defs4">
    <style
       id="style2">.cls-1{fill:#231f20;}.cls-2{fill:#e1251b;}</style>
  </defs>
  <title
     id="title6">Volatility_R1_Logo Symbol Black Red</title>
  <g
     id="Layer_4"
     data-name="Layer 4"
     transform="translate(2.9867293,0.06)">
    <rect
       class="cls-1"
       x="29.799999"
       width="6.4099998"
       height="21.879999"
       id="rect8"
       y="0"
       style="fill:#231f20" />
    <path
       class="cls-1"
       d="M 45.84,80.44 A 33,33 0 0 1 36.42,15.83 l 0.24,-0.05 0.46,-0.14 v 9.71 a 23.81,23.81 0 1 0 17.8,0.2 v -9.78 a 33.19,33.19 0 0 1 22.82,23.37 l 0.12,0.46 c 0.17,0.65 0.31,1.34 0.45,2.09 0.06,0.34 0.11,0.69 0.16,1 v 0.13 c 0.08,0.54 0.16,1.09 0.21,1.64 0.08,0.84 0.12,1.7 0.13,2.54 0,0.08 0,0.38 0,0.44 a 33,33 0 0 1 -32.97,33 z"
       transform="translate(-12.84,-8.56)"
       id="path10"
       inkscape:connector-curvature="0"
       style="fill:#231f20" />
    <polygon
       class="cls-2"
       points="18.07,37.72 25.19,37.72 32.88,59.54 33.04,59.99 42.4,29.94 45.53,38.38 45.57,38.48 48.85,38.48 52.62,35.29 47.84,35.29 42.12,19.89 32.83,49.59 27.48,34.49 14.62,34.49 18.02,37.68 "
       id="polygon12"
       style="fill:#e1251b" />
    <path
       class="cls-1"
       d="m 45.91,70 -8.2,-23.25 h -7 l -4.42,-4.14 h 14.35 l 5,14.13 9.29,-29.67 6.07,16.32 h 5.7 l -4.83,4.1 H 58.1 L 55.28,39.9 Z M 31.08,45.83 h 7.27 l 0.11,0.3 7.4,21 9.35,-30 3.52,9.49 h 2.79 l 2.7,-2.29 H 60.36 L 55,29.85 45.69,59.57 40,43.5 H 28.6 Z"
       transform="translate(-12.84,-8.56)"
       id="path14"
       inkscape:connector-curvature="0"
       style="fill:#231f20" />
  </g>
</svg>
